<?xml version="1.0" standalone="no"?>
<!DOCTYPE svg PUBLIC "-//W3C//DTD SVG 20010904//EN"
 "http://www.w3.org/TR/2001/REC-SVG-20010904/DTD/svg10.dtd">
<svg version="1.0" xmlns="http://www.w3.org/2000/svg"
 width="421.000000pt" height="412.000000pt" viewBox="0 0 421.000000 412.000000"
 preserveAspectRatio="xMidYMid meet">
<metadata>
Created by potrace 1.14, written by Peter Selinger 2001-2017
</metadata>
<g transform="translate(0.000000,412.000000) scale(0.100000,-0.100000)"
fill="#000000" stroke="none">
<path d="M0 2060 l0 -2060 2105 0 2105 0 0 2060 0 2060 -2105 0 -2105 0 0
-2060z m2068 1706 c-18 -25 -60 -80 -93 -123 -80 -104 -336 -438 -454 -593
-52 -69 -127 -165 -166 -215 -142 -181 -214 -281 -229 -317 -28 -67 -20 -125
48 -346 36 -114 103 -333 151 -487 48 -154 95 -298 105 -321 24 -55 82 -112
122 -119 18 -3 279 -5 580 -3 l546 3 43 30 c41 29 111 121 884 1166 l150 202
27 -86 c61 -190 89 -461 68 -657 -24 -234 -76 -420 -170 -615 -246 -507 -699
-855 -1261 -967 -155 -30 -472 -33 -624 -4 -573 107 -1037 458 -1285 971 -81
169 -120 289 -157 495 -25 139 -22 417 6 572 130 729 700 1302 1421 1432 118
21 133 23 233 25 l89 1 -34 -44z m617 -1321 l0 -190 -192 -3 -193 -2 0 -320 0
-320 -195 0 -195 0 0 320 0 320 -195 0 -195 0 0 195 0 195 583 -2 582 -3 0
-190z"/>
</g>
</svg>
